<svg width="200" height="200" viewBox="0 0 200 200" fill="none" xmlns="http://www.w3.org/2000/svg">
<path fill-rule="evenodd" clip-rule="evenodd" d="M25 66C25 64.3431 26.3431 63 28 63H133.957C135.613 63 136.957 64.3431 136.957 66V133.913C136.957 135.57 135.613 136.913 133.957 136.913H28C26.3431 136.913 25 135.57 25 133.913V66Z" fill="black"/>
<path d="M147.826 73.8696C146.025 73.8696 144.565 75.3295 144.565 77.1304V133.652C144.565 135.453 146.025 136.913 147.826 136.913H171.739C173.54 136.913 175 135.453 175 133.652V77.1304C175 75.3295 173.54 73.8696 171.739 73.8696H168.478V74.9565C168.478 76.1571 167.505 77.1304 166.304 77.1304H153.261C152.06 77.1304 151.087 76.1571 151.087 74.9565V73.8696H147.826Z" fill="black"/>
<path d="M164.911 107.022L155.435 113.001V101.043L164.911 107.022Z" fill="white"/>
<path d="M165.998 104.848L156.522 110.827V98.8696L165.998 104.848Z" fill="#EA3410"/>
<path fill-rule="evenodd" clip-rule="evenodd" d="M152.087 131.891C152.087 131.615 152.311 131.391 152.587 131.391H166.587C166.863 131.391 167.087 131.615 167.087 131.891C167.087 132.167 166.863 132.391 166.587 132.391H152.587C152.311 132.391 152.087 132.167 152.087 131.891Z" fill="white"/>
<path fill-rule="evenodd" clip-rule="evenodd" d="M105.435 122.783H50V120.609H105.435V122.783Z" fill="white"/>
<path fill-rule="evenodd" clip-rule="evenodd" d="M106.522 120.609H51.087V118.435H106.522V120.609Z" fill="#EA3410"/>
<rect x="55.4348" y="116.261" width="3.26087" height="8.69565" fill="white"/>
<path d="M44.4976 121.531L35.021 127.51V115.553L44.4976 121.531Z" fill="white"/>
<path d="M45.5845 119.358L36.1079 125.336V113.379L45.5845 119.358Z" fill="#EA3410"/>
<circle cx="128.261" cy="99.9565" r="2.17391" fill="white"/>
<line x1="120.065" y1="63" x2="120.065" y2="136.913" stroke="white"/>
</svg>
