<svg width="200" height="200" viewBox="0 0 200 200" fill="none" xmlns="http://www.w3.org/2000/svg">
<path d="M42.5 45.5H137.876L157.5 66.1053V123.658H157.494H157.478H157.461H157.445H157.428H157.411H157.395H157.378H157.361H157.344H157.328H157.311H157.294H157.277H157.26H157.243H157.226H157.209H157.192H157.175H157.158H157.141H157.123H157.106H157.089H157.072H157.054H157.037H157.02H157.002H156.985H156.968H156.95H156.933H156.915H156.897H156.88H156.862H156.845H156.827H156.809H156.792H156.774H156.756H156.738H156.721H156.703H156.685H156.667H156.649H156.631H156.613H156.595H156.577H156.559H156.541H156.523H156.505H156.487H156.469H156.451H156.432H156.414H156.396H156.378H156.36H156.341H156.323H156.305H156.286H156.268H156.25H156.231H156.213H156.194H156.176H156.157H156.139H156.12H156.102H156.083H156.065H156.046H156.028H156.009H155.99H155.972H155.953H155.934H155.916H155.897H155.878H155.86H155.841H155.822H155.803H155.784H155.766H155.747H155.728H155.709H155.69H155.671H155.653H155.634H155.615H155.596H155.577H155.558H155.539H155.52H155.501H155.482H155.463H155.444H155.425H155.406H155.387H155.368H155.349H155.33H155.311H155.292H155.273H155.254H155.235H155.215H155.196H155.177H155.158H155.139H155.12H155.101H155.081H155.062H155.043H155.024H155.005H154.986H154.966H154.947H154.928H154.909H154.89H154.87H154.851H154.832H154.813H154.794H154.774H154.755H154.736H154.717H154.697H154.678H154.659H154.64H154.621H154.601H154.582H154.563H154.544H154.524H154.505H154.486H154.467H154.447H154.428H154.409H154.39H154.371H154.351H154.332H154.313H154.294H154.274H154.255H154.236H154.217H154.198H154.178H154.159H154.14H154.121H154.102H154.083H154.063H154.044H154.025H154.006H153.987H153.968H153.949H153.929H153.91H153.891H153.872H153.853H153.834H153.815H153.796H153.777H153.758H153.739H153.72H153.701H153.682H153.663H153.644H153.625H153.606H153.587H153.568H153.549H153.53H153.511H153.492H153.473H153.454H153.435H153.417H153.398H153.379H153.36H153.341H153.323H153.304H153.285H153.266H153.248H153.229H153.21H153.191H153.173H153.154H153.135H153.117H153.098H153.08H153.061H153.043H153.024H153.005H152.987H152.968H152.95H152.932H152.913H152.895H42.5V123.627L42.5 119L42.5 76.1929L42.5 57.7697L42.5 52.1987L42.5 50.6853L42.5 50.2919V50.1917V50.1664V50.16V50.1584C42.5 50.1581 42.5 50.1579 40.079 50.1579H42.5L42.5 45.5Z" fill="black" stroke="black" stroke-width="5" stroke-linecap="round" stroke-linejoin="round"/>
<path d="M138.947 43V65.1053H160" fill="#EA3410"/>
<path fill-rule="evenodd" clip-rule="evenodd" d="M60 65.1053L97.8947 65.1053L97.8947 69.9053L60 69.9053L60 65.1053Z" fill="white"/>
<path fill-rule="evenodd" clip-rule="evenodd" d="M78.9474 80.3895L116.842 80.3895L116.842 85.1895L78.9474 85.1895L78.9474 80.3895Z" fill="white"/>
<circle cx="99.2" cy="124.579" r="24.8" fill="white"/>
<path fill-rule="evenodd" clip-rule="evenodd" d="M98.9473 105.989C89.2011 105.989 81.3003 113.926 81.3003 123.717C81.3003 129.085 83.6877 133.872 87.44 137.123L78.9473 152.08L87.1826 149.717L89.5356 157.989L98.3223 141.407C98.4121 141.41 98.5009 141.417 98.5896 141.425C98.708 141.434 98.8264 141.444 98.9473 141.444C99.0682 141.444 99.1866 141.434 99.305 141.425C99.3938 141.417 99.4825 141.41 99.5723 141.407L108.359 157.989L110.712 149.717L118.947 152.08L110.455 137.123C114.204 133.872 116.594 129.083 116.594 123.717C116.594 113.926 108.694 105.989 98.9473 105.989ZM98.9473 133.171C104.145 133.171 108.359 128.938 108.359 123.717C108.359 118.495 104.145 114.262 98.9473 114.262C93.7494 114.262 89.5356 118.495 89.5356 123.717C89.5356 128.938 93.7494 133.171 98.9473 133.171Z" fill="#EA3410"/>
</svg>
