<svg width="200" height="200" viewBox="0 0 200 200" fill="none" xmlns="http://www.w3.org/2000/svg">
<path fill-rule="evenodd" clip-rule="evenodd" d="M28.7912 61.4378C28.7912 59.5391 30.3314 58 32.2312 58H128.552C130.452 58 131.992 59.5391 131.992 61.4378V69.0008H28.7912V61.4378ZM36.3593 65.5631C37.4992 65.5631 38.4233 64.6396 38.4233 63.5004C38.4233 62.3612 37.4992 61.4378 36.3593 61.4378C35.2194 61.4378 34.2953 62.3612 34.2953 63.5004C34.2953 64.6396 35.2194 65.5631 36.3593 65.5631ZM45.3034 65.5631C46.4433 65.5631 47.3674 64.6396 47.3674 63.5004C47.3674 62.3612 46.4433 61.4378 45.3034 61.4378C44.1635 61.4378 43.2394 62.3612 43.2394 63.5004C43.2394 64.6396 44.1635 65.5631 45.3034 65.5631ZM54.2475 65.5631C55.3874 65.5631 56.3115 64.6396 56.3115 63.5004C56.3115 62.3612 55.3874 61.4378 54.2475 61.4378C53.1076 61.4378 52.1835 62.3612 52.1835 63.5004C52.1835 64.6396 53.1076 65.5631 54.2475 65.5631Z" fill="black"/>
<path fill-rule="evenodd" clip-rule="evenodd" d="M28.7912 71.7511H131.992V120.567H28.7912V71.7511Z" fill="black"/>
<path d="M137.244 128.672C136.642 129.274 135.825 129.613 134.974 129.613H25.8098C24.9583 129.613 24.1417 129.274 23.5395 128.672C22.9374 128.07 22.5991 127.253 22.5991 126.401V123.189H138.184V126.401C138.184 127.253 137.846 128.07 137.244 128.672Z" fill="black"/>
<path d="M190 136.037H10V142.462H190V136.037Z" fill="black"/>
<path d="M179.93 110.34H161.499L163.91 129.613H177.519L179.93 110.34Z" fill="black"/>
<path d="M183.41 110.34H187V116.764H182.606L183.41 110.34Z" fill="black"/>
<path fill-rule="evenodd" clip-rule="evenodd" d="M122.156 105.97H52.4082V103.728H122.156V105.97Z" fill="white"/>
<path fill-rule="evenodd" clip-rule="evenodd" d="M123.156 103.97H53.4082V101.728H123.156V103.97Z" fill="#EA3410"/>
<rect x="57" y="100" width="3" height="8" fill="white"/>
<path d="M46.9378 104.849L38.2193 110.349V99.3486L46.9378 104.849Z" fill="white"/>
<path d="M47.9378 102.849L39.2193 108.349V97.3486L47.9378 102.849Z" fill="#EA3410"/>
<path fill-rule="evenodd" clip-rule="evenodd" d="M168.5 90.7308L168.5 100L165.5 100L165.5 90.2308C165.5 88.8501 166.619 87.7308 168 87.7308L169.5 87.7308L169.5 80L172.5 80L172.5 88.2308C172.5 89.6115 171.381 90.7308 170 90.7308L168.5 90.7308Z" fill="black"/>
<path fill-rule="evenodd" clip-rule="evenodd" d="M174.5 94.7308L174.5 104L171.5 104L171.5 94.2308C171.5 92.8501 172.619 91.7308 174 91.7308L175.5 91.7308L175.5 84L178.5 84L178.5 92.2308C178.5 93.6115 177.381 94.7308 176 94.7308L174.5 94.7308Z" fill="black"/>
</svg>
