<svg width="70" height="70" viewBox="0 0 70 70" fill="none" xmlns="http://www.w3.org/2000/svg">
<path d="M14.5 8.5H39.7081L55.5 24.4292V61.5H55.4893H55.475H55.4608H55.4465H55.4322H55.4179H55.4036H55.3893H55.3749H55.3605H55.3461H55.3316H55.3172H55.3027H55.2882H55.2737H55.2592H55.2447H55.2301H55.2155H55.2009H55.1863H55.1716H55.157H55.1423H55.1276H55.1129H55.0982H55.0835H55.0687H55.0539H55.0391H55.0243H55.0095H54.9946H54.9798H54.9649H54.95H54.9351H54.9202H54.9053H54.8903H54.8754H54.8604H54.8454H54.8304H54.8154H54.8003H54.7853H54.7702H54.7552H54.7401H54.725H54.7099H54.6948H54.6796H54.6645H54.6493H54.6341H54.619H54.6038H54.5886H54.5733H54.5581H54.5429H54.5276H54.5124H54.4971H54.4818H54.4665H54.4512H54.4359H54.4206H54.4053H54.3899H54.3746H54.3592H54.3439H54.3285H54.3131H54.2978H54.2824H54.267H54.2515H54.2361H54.2207H54.2053H54.1898H54.1744H54.159H54.1435H54.128H54.1126H54.0971H54.0816H54.0661H54.0506H54.0351H54.0196H54.0041H53.9886H53.9731H53.9576H53.9421H53.9266H53.911H53.8955H53.88H53.8644H53.8489H53.8333H53.8178H53.8022H53.7867H53.7711H53.7556H53.74H53.7245H53.7089H53.6933H53.6778H53.6622H53.6467H53.6311H53.6155H53.6H53.5844H53.5688H53.5533H53.5377H53.5221H53.5066H53.491H53.4755H53.4599H53.4443H53.4288H53.4132H53.3977H53.3821H53.3666H53.351H53.3355H53.32H53.3044H53.2889H53.2734H53.2579H53.2423H53.2268H53.2113H53.1958H53.1803H53.1648H53.1493H53.1338H53.1183H53.1028H53.0874H53.0719H53.0564H53.041H53.0255H53.0101H52.9947H52.9792H52.9638H52.9484H52.933H52.9176H52.9022H52.8868H52.8714H52.8561H52.8407H52.8254H52.81H52.7947H52.7794H52.764H52.7487H52.7334H52.7182H52.7029H52.6876H52.6723H52.6571H52.6419H52.6266H52.6114H52.5962H52.581H52.5659H52.5507H52.5355H52.5204H52.5052H52.4901H52.475H52.4599H52.4448H52.4298H52.4147H52.3997H52.3846H52.3696H52.3546H52.3396H52.3247H52.3097H52.2948H52.2798H52.2649H52.25H14.5L14.5 58.2L14.5 28.2049L14.5 16.5018L14.5 13.0505L14.5 12.122L14.5 11.8817V11.8206V11.8052V11.8013V11.8003C14.5 11.8001 14.5 11.8 12.1883 11.8H14.5L14.5 8.5Z" stroke="#EA3410" stroke-width="5" stroke-linecap="round" stroke-linejoin="round"/>
<mask id="path-3-inside-1" fill="white">
<path d="M37 8V28H56"/>
</mask>
<path d="M42 8C42 5.23858 39.7614 3 37 3C34.2386 3 32 5.23858 32 8H42ZM37 28H32C32 30.7614 34.2386 33 37 33V28ZM56 33C58.7614 33 61 30.7614 61 28C61 25.2386 58.7614 23 56 23V33ZM32 8V28H42V8H32ZM37 33H56V23H37V33Z" fill="#EA3410" mask="url(#path-3-inside-1)"/>
<path d="M45 37.5H25" stroke="#EA3410" stroke-width="5" stroke-linejoin="round"/>
<path d="M45 47.5H25" stroke="#EA3410" stroke-width="5" stroke-linejoin="round"/>
<path d="M30 27.5H27.5H25" stroke="#EA3410" stroke-width="5" stroke-linejoin="round"/>
</svg>
