<svg width="69" height="83" viewBox="0 0 69 83" fill="none" xmlns="http://www.w3.org/2000/svg">
<path d="M0.641094 5.55L3.02109 13.81L12.2611 11.22V50H21.9211V0.999997H13.5211L0.641094 5.55ZM61.5914 50V40.69H43.1814L52.7714 31.1C58.1614 25.71 60.8214 20.53 60.8214 15.42C60.8214 10.73 59.2114 6.95 56.0614 4.22C52.9114 1.42 49.0614 0.0199968 44.6514 0.0199968C37.7214 0.0199968 31.5614 3.66 28.4814 10.38L36.6014 15.14C38.3514 11.29 41.0814 9.4 44.7914 9.4C48.5014 9.4 51.1614 11.92 51.1614 15.77C51.1614 18.36 49.2714 21.65 45.5614 25.57L28.8314 42.79V50H61.5914ZM7.46164 71.76L4.40164 65H1.64164L6.22164 74.78C5.60164 76 4.76164 76.56 3.26164 76.42V79C5.82164 79.14 7.66164 77.86 8.78164 75.14L12.9816 65H10.2216L7.46164 71.76ZM19.5488 68.72C18.1488 68.72 17.0688 69.2 16.3088 70.18V69H13.7288V83H16.3088V77.82C17.0688 78.8 18.1488 79.28 19.5488 79.28C20.8888 79.28 22.0488 78.78 22.9888 77.76C23.9488 76.74 24.4288 75.48 24.4288 74C24.4288 72.52 23.9488 71.28 22.9888 70.26C22.0488 69.24 20.8888 68.72 19.5488 68.72ZM17.0888 76.04C16.5688 75.5 16.3088 74.82 16.3088 74C16.3088 73.18 16.5688 72.5 17.0888 71.98C17.6088 71.44 18.2688 71.18 19.0688 71.18C19.8688 71.18 20.5288 71.44 21.0488 71.98C21.5888 72.5 21.8488 73.18 21.8488 74C21.8488 74.82 21.5888 75.5 21.0488 76.04C20.5288 76.56 19.8688 76.82 19.0688 76.82C18.2688 76.82 17.6088 76.56 17.0888 76.04ZM34.7684 77.76C35.7884 76.74 36.3084 75.48 36.3084 74C36.3084 72.52 35.7884 71.28 34.7684 70.26C33.7484 69.24 32.4884 68.72 31.0084 68.72C29.5284 68.72 28.2684 69.24 27.2484 70.26C26.2284 71.28 25.7284 72.52 25.7284 74C25.7284 75.48 26.2284 76.74 27.2484 77.76C28.2684 78.78 29.5284 79.28 31.0084 79.28C32.4884 79.28 33.7484 78.78 34.7684 77.76ZM29.0684 75.98C28.5684 75.46 28.3084 74.8 28.3084 74C28.3084 73.2 28.5684 72.54 29.0684 72.02C29.5884 71.5 30.2284 71.24 31.0084 71.24C31.7884 71.24 32.4284 71.5 32.9484 72.02C33.4684 72.54 33.7284 73.2 33.7284 74C33.7284 74.8 33.4684 75.46 32.9484 75.98C32.4284 76.5 31.7884 76.76 31.0084 76.76C30.2284 76.76 29.5884 76.5 29.0684 75.98ZM43.2034 73.94L47.2234 69H44.1434L40.7034 73.4V69H38.1234V79H40.7034V74.46L44.3434 79H47.3434L43.2034 73.94ZM56.4285 77.76C57.4485 76.74 57.9685 75.48 57.9685 74C57.9685 72.52 57.4485 71.28 56.4285 70.26C55.4085 69.24 54.1485 68.72 52.6685 68.72C51.1885 68.72 49.9285 69.24 48.9085 70.26C47.8885 71.28 47.3885 72.52 47.3885 74C47.3885 75.48 47.8885 76.74 48.9085 77.76C49.9285 78.78 51.1885 79.28 52.6685 79.28C54.1485 79.28 55.4085 78.78 56.4285 77.76ZM50.7285 75.98C50.2285 75.46 49.9685 74.8 49.9685 74C49.9685 73.2 50.2285 72.54 50.7285 72.02C51.2485 71.5 51.8885 71.24 52.6685 71.24C53.4485 71.24 54.0885 71.5 54.6085 72.02C55.1285 72.54 55.3885 73.2 55.3885 74C55.3885 74.8 55.1285 75.46 54.6085 75.98C54.0885 76.5 53.4485 76.76 52.6685 76.76C51.8885 76.76 51.2485 76.5 50.7285 75.98ZM66.9835 73.88C67.6435 73.38 67.9635 72.7 67.9635 71.82C67.9635 70.14 66.7435 69 64.6435 69H59.7835V79H65.0435C67.1835 79 68.3835 77.84 68.3835 76.16C68.3835 75.1 67.9235 74.34 66.9835 73.88ZM64.4035 71.12C65.1435 71.12 65.5035 71.42 65.5035 72.02C65.5035 72.62 65.1435 72.92 64.4035 72.92H62.2035V71.12H64.4035ZM62.2035 76.82V74.96H64.7435C65.4435 74.96 65.8635 75.3 65.8635 75.86C65.8635 76.5 65.4835 76.82 64.7435 76.82H62.2035Z" fill="#EA3410"/>
</svg>
