<svg width="75" height="79" viewBox="0 0 75 79" fill="none" xmlns="http://www.w3.org/2000/svg">
<path d="M33.12 31.71V20.09H23.39V31.71H10.65L26.89 -3.33786e-06H16.53L0.220034 31.71V40.67H23.39V49H33.12V40.67H38.37V31.71H33.12ZM63.0155 20.23V8.75H54.5455V20.23H43.0655V28.7H54.5455V40.25H63.0155V28.7H74.5655V20.23H63.0155ZM25.975 70.2C25.155 70.58 24.275 70.78 23.295 70.78C21.995 70.78 21.135 69.98 21.135 68.64V64H18.375V69C18.375 70.36 18.835 71.44 19.735 72.24C20.655 73.02 21.815 73.42 23.235 73.42C24.215 73.42 25.115 73.24 25.975 72.88V78H28.735V64H25.975V70.2ZM38.8113 69.18C38.0313 68.2 36.9513 67.72 35.5513 67.72C34.2113 67.72 33.0713 68.24 32.1113 69.26C31.1713 70.28 30.6913 71.52 30.6913 73C30.6913 74.48 31.1713 75.74 32.1113 76.76C33.0713 77.78 34.2113 78.28 35.5513 78.28C36.9513 78.28 38.0313 77.8 38.8113 76.82V78H41.3913V68H38.8113V69.18ZM34.0513 75.04C33.5313 74.5 33.2713 73.82 33.2713 73C33.2713 72.18 33.5313 71.5 34.0513 70.98C34.5713 70.44 35.2313 70.18 36.0313 70.18C36.8313 70.18 37.4913 70.44 38.0113 70.98C38.5513 71.5 38.8113 72.18 38.8113 73C38.8113 73.82 38.5513 74.5 38.0113 75.04C37.4913 75.56 36.8313 75.82 36.0313 75.82C35.2313 75.82 34.5713 75.56 34.0513 75.04ZM48.4908 78.28C50.4308 78.28 52.1308 77.26 53.0108 75.68L50.7708 74.4C50.3708 75.22 49.5108 75.72 48.4708 75.72C47.6908 75.72 47.0508 75.46 46.5508 74.96C46.0508 74.44 45.7908 73.78 45.7908 73C45.7908 71.4 46.9308 70.26 48.4708 70.26C49.4908 70.26 50.3508 70.78 50.7508 71.6L52.9708 70.3C52.1508 68.72 50.4308 67.72 48.4908 67.72C46.9908 67.72 45.7308 68.22 44.7108 69.24C43.7108 70.26 43.2108 71.5 43.2108 73C43.2108 74.5 43.7108 75.74 44.7108 76.76C45.7308 77.78 46.9908 78.28 48.4908 78.28ZM61.8191 69.18C61.0391 68.2 59.9591 67.72 58.5591 67.72C57.2191 67.72 56.0791 68.24 55.1191 69.26C54.1791 70.28 53.6991 71.52 53.6991 73C53.6991 74.48 54.1791 75.74 55.1191 76.76C56.0791 77.78 57.2191 78.28 58.5591 78.28C59.9591 78.28 61.0391 77.8 61.8191 76.82V78H64.3991V68H61.8191V69.18ZM57.0591 75.04C56.5391 74.5 56.2791 73.82 56.2791 73C56.2791 72.18 56.5391 71.5 57.0591 70.98C57.5791 70.44 58.2391 70.18 59.0391 70.18C59.8391 70.18 60.4991 70.44 61.0191 70.98C61.5591 71.5 61.8191 72.18 61.8191 73C61.8191 73.82 61.5591 74.5 61.0191 75.04C60.4991 75.56 59.8391 75.82 59.0391 75.82C58.2391 75.82 57.5791 75.56 57.0591 75.04Z" fill="#EA3410"/>
</svg>
