<svg width="24" height="20" viewBox="0 0 24 20" fill="none" xmlns="http://www.w3.org/2000/svg">
<path fill-rule="evenodd" clip-rule="evenodd" d="M12 6C9.23858 6 7 8.23858 7 11C7 13.7614 9.23858 16 12 16C14.7614 16 17 13.7614 17 11C17 8.23858 14.7614 6 12 6ZM9 11C9 9.34315 10.3431 8 12 8C13.6569 8 15 9.34315 15 11C15 12.6569 13.6569 14 12 14C10.3431 14 9 12.6569 9 11Z" fill="#111111"/>
<path fill-rule="evenodd" clip-rule="evenodd" d="M9 0C8.66565 0 8.35342 0.167101 8.16795 0.4453L6.46482 3H1C0.447715 3 0 3.44788 0 4.00017V19C0 19.2652 0.105357 19.5196 0.292893 19.7071C0.48043 19.8946 0.734784 20 1 20H23C23.5523 20 24 19.5522 24 18.9999V4C24 3.44772 23.5523 3 23 3H17.5352L15.8321 0.4453C15.6466 0.167101 15.3344 0 15 0H9ZM2 5H6.99994C7.33429 5 7.64658 4.8329 7.83205 4.5547L9.53518 2H14.4648L16.1679 4.5547C16.3534 4.8329 16.6656 5 17 5L22 5.00081V18H2V5Z" fill="#111111"/>
</svg>
