<svg width="400" height="39" viewBox="0 0 400 39" fill="none" xmlns="http://www.w3.org/2000/svg">
<path d="M19.3802 0C15.5472 0 11.8002 1.13663 8.61315 3.26615C5.42609 5.39568 2.94208 8.42245 1.47524 11.9637C0.00839718 15.505 -0.375396 19.4017 0.372394 23.1611C1.12018 26.9205 2.96597 30.3737 5.67634 33.0841C8.38671 35.7945 11.8399 37.6402 15.5993 38.388C19.3587 39.1358 23.2554 38.752 26.7967 37.2852C30.338 35.8183 33.3648 33.3343 35.4943 30.1473C37.6238 26.9602 38.7604 23.2133 38.7604 19.3802C38.7604 14.2403 36.7186 9.31083 33.0841 5.67633C29.4496 2.04184 24.5202 0 19.3802 0V0ZM19.3802 30.5176C16.4264 30.5176 13.5936 29.3442 11.5049 27.2555C9.41627 25.1668 8.24287 22.334 8.24287 19.3802C8.24361 18.6885 8.30711 17.9982 8.43257 17.318H17.318L21.418 21.418H12.6733C13.1244 22.8844 14.0435 24.1626 15.29 25.0571C16.5365 25.9516 18.0417 26.413 19.5753 26.3708C21.109 26.3285 22.5865 25.785 23.7819 24.8233C24.9773 23.8615 25.8247 22.5347 26.1943 21.0456C26.564 19.5566 26.4356 17.9875 25.8288 16.5784C25.222 15.1692 24.1702 13.9978 22.8344 13.2432C21.4986 12.4886 19.9523 12.1924 18.4322 12.4001C16.9121 12.6077 15.5019 13.3077 14.4174 14.3929L11.5045 11.5045C12.7996 10.2095 14.3941 9.25391 16.1468 8.72232C17.8994 8.19073 19.7561 8.09956 21.5524 8.45691C23.3487 8.81425 25.0292 9.60907 26.4449 10.771C27.8607 11.9328 28.968 13.426 29.6689 15.118C30.3698 16.8101 30.6426 18.6489 30.4632 20.4716C30.2837 22.2942 29.6575 24.0445 28.64 25.5674C27.6226 27.0903 26.2453 28.3387 24.6301 29.2022C23.0149 30.0656 21.2117 30.5174 19.3802 30.5176ZM275.674 8.24286C277.137 8.24209 278.585 8.52977 279.937 9.08945C281.288 9.64912 282.516 10.4698 283.55 11.5045L280.631 14.4174C279.546 13.3311 278.134 12.6307 276.613 12.4233C275.092 12.2158 273.544 12.513 272.208 13.2691C270.872 14.0252 269.82 15.1985 269.215 16.6094C268.609 18.0202 268.483 19.5908 268.855 21.0802C269.228 22.5697 270.078 23.896 271.277 24.8559C272.475 25.8158 273.955 26.3564 275.49 26.3947C277.024 26.433 278.53 25.967 279.774 25.0681C281.019 24.1692 281.935 22.887 282.381 21.418H273.612L277.73 17.2935H286.615C286.746 17.9731 286.812 18.6637 286.811 19.3557C286.811 21.5585 286.158 23.7118 284.934 25.5433C283.71 27.3748 281.971 28.8023 279.936 29.6453C277.901 30.4883 275.662 30.7088 273.501 30.2791C271.341 29.8493 269.356 28.7886 267.799 27.231C266.241 25.6734 265.18 23.689 264.751 21.5285C264.321 19.3681 264.541 17.1287 265.384 15.0937C266.227 13.0586 267.655 11.3192 269.486 10.0954C271.318 8.87158 273.471 8.21838 275.674 8.21838V8.24286ZM68.1643 8.67122C69.1265 8.65161 70.0828 8.8257 70.9764 9.18313C71.8699 9.54056 72.6825 10.074 73.3658 10.7518C74.052 11.4111 74.594 12.2057 74.9574 13.0852C75.3208 13.9648 75.4977 14.9101 75.477 15.8615C75.4977 16.813 75.3208 17.7583 74.9574 18.6379C74.594 19.5174 74.052 20.3119 73.3658 20.9713C72.6825 21.6491 71.8699 22.1825 70.9764 22.54C70.0828 22.8974 69.1265 23.0715 68.1643 23.0519H64.4008V30.0892H60.1784V8.67122H68.1643ZM68.1643 19.0742C68.5851 19.0763 69.002 18.9929 69.3896 18.829C69.7773 18.6652 70.1276 18.4244 70.4194 18.1211C70.7112 17.8178 70.9384 17.4585 71.0872 17.0648C71.2361 16.6712 71.3034 16.2514 71.2852 15.8309C71.3106 15.4088 71.2483 14.9859 71.1021 14.589C70.9559 14.1921 70.729 13.8299 70.4358 13.5251C70.1425 13.2203 69.7892 12.9797 69.3983 12.8183C69.0073 12.657 68.5871 12.5784 68.1643 12.5877H64.4008V19.0742H68.1643ZM88.0157 26.0198H97.0418V30.0586H83.7933V8.64062H96.8888V12.6794H88.0157V17.2384H96.1239V21.216H88.0157V26.0198ZM118.105 30.0892L113.785 22.6419H110.572V30.0892H106.349V8.67122H114.917C115.851 8.668 116.777 8.84919 117.642 9.20441C118.506 9.55962 119.292 10.0819 119.954 10.7413C120.616 11.4007 121.142 12.1843 121.501 13.0471C121.86 13.91 122.045 14.8352 122.046 15.7698C122.027 17.0988 121.628 18.3946 120.896 19.504C120.164 20.6135 119.13 21.49 117.915 22.0299L122.658 30.1076L118.105 30.0892ZM110.578 12.6182V18.9702H114.923C115.729 18.9305 116.487 18.5738 117.031 17.9778C117.576 17.3817 117.863 16.5947 117.829 15.7881C117.855 14.9867 117.564 14.2075 117.02 13.6181C116.477 13.0288 115.724 12.6763 114.923 12.6366L110.578 12.6182ZM129.732 25.2243L133.342 23.1131C134.168 25.2855 135.821 26.3869 138.268 26.3869C140.624 26.3869 141.695 25.4384 141.695 24.1228C141.706 23.7668 141.618 23.4149 141.439 23.1067C141.261 22.7985 141 22.5463 140.686 22.3787C139.547 21.764 138.334 21.3011 137.075 21.0019C135.49 20.6064 133.988 19.933 132.639 19.013C131.968 18.4995 131.433 17.8294 131.081 17.0613C130.729 16.2932 130.57 15.4506 130.619 14.6071C130.581 13.731 130.746 12.8579 131.102 12.0563C131.457 11.2548 131.994 10.5464 132.669 9.9869C134.073 8.8135 135.858 8.19331 137.687 8.24286C139.293 8.2051 140.874 8.64038 142.234 9.49452C143.594 10.3487 144.673 11.5839 145.336 13.0466L141.787 15.0966C140.93 13.2608 139.553 12.3429 137.687 12.3429C135.943 12.3429 134.872 13.2302 134.872 14.4847C134.867 14.8062 134.939 15.1242 135.083 15.4118C135.227 15.6994 135.438 15.9482 135.698 16.1369C136.714 16.7294 137.805 17.1823 138.942 17.4832L140.41 17.9727C140.879 18.1189 141.339 18.2926 141.787 18.4929C142.26 18.6519 142.712 18.8677 143.133 19.1354C143.939 19.6093 144.629 20.2575 145.153 21.0325C145.695 21.9594 145.97 23.0184 145.948 24.0922C145.982 24.993 145.802 25.889 145.425 26.7076C145.047 27.5262 144.483 28.2445 143.776 28.8041C142.17 30.0214 140.189 30.6384 138.177 30.5482C133.905 30.5176 130.956 28.4981 129.732 25.2243ZM164.484 30.5176C163.018 30.5357 161.563 30.2598 160.205 29.7062C158.847 29.1525 157.614 28.3323 156.579 27.2941C155.544 26.2558 154.727 25.0206 154.177 23.6613C153.627 22.302 153.355 20.8463 153.377 19.3802C153.342 17.8977 153.604 16.4232 154.148 15.0434C154.691 13.6635 155.505 12.4063 156.541 11.3455C157.577 10.2846 158.815 9.4417 160.182 8.86619C161.548 8.29067 163.016 7.9942 164.499 7.9942C165.982 7.9942 167.45 8.29067 168.817 8.86619C170.184 9.4417 171.421 10.2846 172.458 11.3455C173.494 12.4063 174.308 13.6635 174.851 15.0434C175.394 16.4232 175.656 17.8977 175.621 19.3802C175.638 20.8473 175.361 22.303 174.807 23.6616C174.253 25.0203 173.433 26.2546 172.396 27.292C171.358 28.3295 170.124 29.1493 168.765 29.7032C167.407 30.2571 165.951 30.534 164.484 30.5176ZM164.484 26.3869C165.395 26.4135 166.302 26.2534 167.149 25.9167C167.996 25.58 168.766 25.0736 169.41 24.4287C170.068 23.7671 170.584 22.978 170.926 22.1099C171.268 21.2417 171.429 20.3128 171.399 19.3802C171.429 18.4476 171.268 17.5187 170.926 16.6505C170.584 15.7824 170.068 14.9933 169.41 14.3317C168.088 13.0552 166.322 12.3418 164.484 12.3418C162.646 12.3418 160.88 13.0552 159.558 14.3317C158.9 14.9933 158.384 15.7824 158.042 16.6505C157.7 17.5187 157.539 18.4476 157.569 19.3802C157.539 20.3128 157.7 21.2417 158.042 22.1099C158.384 22.978 158.9 23.7671 159.558 24.4287C160.204 25.0751 160.975 25.5824 161.824 25.9192C162.674 26.256 163.583 26.4152 164.496 26.3869H164.484ZM196.978 8.67122H201.201V30.0892H197.988L188.809 16.9936V30.0892H184.586V8.67122H187.799L196.978 21.7362V8.67122ZM224.687 30.0892L223.402 26.234H214.877L213.592 30.0892H209.033L216.53 8.67122H221.762L229.289 30.0892H224.687ZM216.224 22.2869H222.098L219.161 13.5362L216.224 22.2869ZM241.313 26.0504H249.483V30.0892H237.103V8.67122H241.326L241.313 26.0504ZM299.797 26.0504H308.823V30.0892H295.568V8.67122H308.664V12.71H299.791V17.269H307.899V21.2466H299.809L299.797 26.0504ZM330.522 8.67122H334.732V30.0892H331.52L322.341 16.9936V30.0892H318.118V8.67122H321.331L330.51 21.7362L330.522 8.67122ZM344.817 8.67122H349.04V30.0892H344.817V8.67122ZM361.242 28.4981C360.481 27.8223 359.881 26.9857 359.484 26.049C359.087 25.1122 358.904 24.0989 358.947 23.0825V8.67122H363.139V22.7459C363.139 24.9795 364.363 26.3869 367.116 26.3869C369.87 26.3869 371.094 24.9795 371.094 22.7459V8.67122H375.316V23.0825C375.36 24.0989 375.176 25.1122 374.78 26.049C374.383 26.9857 373.782 27.8223 373.022 28.4981C371.337 29.8067 369.265 30.517 367.132 30.517C364.999 30.517 362.926 29.8067 361.242 28.4981ZM383.773 25.2243L387.384 23.1131C388.21 25.2855 389.862 26.3869 392.31 26.3869C394.758 26.3869 395.737 25.4384 395.737 24.1228C395.748 23.7668 395.659 23.4149 395.481 23.1067C395.303 22.7985 395.041 22.5463 394.727 22.3787C393.589 21.764 392.375 21.3011 391.117 21.0019C389.532 20.6064 388.03 19.933 386.68 19.013C386.009 18.4995 385.474 17.8294 385.122 17.0613C384.77 16.2932 384.612 15.4506 384.661 14.6071C384.627 13.7279 384.798 12.853 385.16 12.0512C385.522 11.2494 386.066 10.5427 386.748 9.9869C388.144 8.82053 389.916 8.20079 391.735 8.24286C393.34 8.2051 394.922 8.64038 396.282 9.49452C397.642 10.3487 398.721 11.5839 399.384 13.0466L395.835 15.0966C394.978 13.2608 393.601 12.3429 391.735 12.3429C389.991 12.3429 388.92 13.2302 388.92 14.4847C388.915 14.8062 388.987 15.1242 389.131 15.4118C389.275 15.6994 389.486 15.9482 389.746 16.1369C390.762 16.7294 391.853 17.1823 392.989 17.4832L394.458 17.9727C394.927 18.1189 395.387 18.2926 395.835 18.4929C396.308 18.6519 396.76 18.8677 397.181 19.1354C397.987 19.6093 398.677 20.2575 399.201 21.0325C399.743 21.9594 400.018 23.0184 399.996 24.0922C400.029 24.993 399.85 25.889 399.473 26.7076C399.095 27.5262 398.53 28.2445 397.824 28.8041C396.218 30.0214 394.237 30.6384 392.224 30.5482C387.971 30.5176 384.979 28.4981 383.786 25.2243H383.773Z" fill="white"/>
</svg>
