<svg width="210" height="104" viewBox="0 0 210 104" fill="none" xmlns="http://www.w3.org/2000/svg">
<path fill-rule="evenodd" clip-rule="evenodd" d="M0 3.19995C0 1.5431 1.34314 0.199951 3 0.199951H153.739C155.396 0.199951 156.739 1.54309 156.739 3.19995V100.678C156.739 102.335 155.396 103.678 153.739 103.678H3C1.34315 103.678 0 102.335 0 100.678V3.19995Z" fill="black"/>
<path d="M171.957 15.4172C169.435 15.4172 167.391 17.4612 167.391 19.9825V99.1129C167.391 101.634 169.435 103.678 171.957 103.678H205.435C207.956 103.678 210 101.634 210 99.1129V19.9825C210 17.4612 207.956 15.4172 205.435 15.4172H200.87V16.939C200.87 18.6198 199.507 19.9825 197.826 19.9825H179.565C177.884 19.9825 176.522 18.6198 176.522 16.939V15.4172H171.957Z" fill="black"/>
<path d="M195.876 61.8309L182.609 70.2011V53.4607L195.876 61.8309Z" fill="white"/>
<path d="M197.398 58.7874L184.13 67.1576V50.4172L197.398 58.7874Z" fill="#EA3410"/>
<path fill-rule="evenodd" clip-rule="evenodd" d="M177.922 96.6478C177.922 96.2612 178.235 95.9478 178.622 95.9478H198.222C198.608 95.9478 198.922 96.2612 198.922 96.6478C198.922 97.0344 198.608 97.3478 198.222 97.3478H178.622C178.235 97.3478 177.922 97.0344 177.922 96.6478Z" fill="white"/>
<path fill-rule="evenodd" clip-rule="evenodd" d="M112.609 83.8955H35V80.8521H112.609V83.8955Z" fill="white"/>
<path fill-rule="evenodd" clip-rule="evenodd" d="M114.13 80.8521H36.5217V77.8086H114.13V80.8521Z" fill="#EA3410"/>
<rect x="42.6086" y="74.7651" width="4.56522" height="12.1739" fill="white"/>
<path d="M27.2966 82.1441L14.0293 90.5143V73.7739L27.2966 82.1441Z" fill="white"/>
<path d="M28.8183 79.1006L15.551 87.4709V70.7305L28.8183 79.1006Z" fill="#EA3410"/>
<ellipse cx="144.565" cy="51.939" rx="3.04348" ry="3.04347" fill="white"/>
<line x1="132.891" y1="0.199951" x2="132.891" y2="103.678" stroke="white"/>
</svg>
