<svg width="24" height="20" viewBox="0 0 24 20" fill="none" xmlns="http://www.w3.org/2000/svg">
<path fill-rule="evenodd" clip-rule="evenodd" d="M18.5557 16.731L21.6832 19.3552L22.9688 17.8232L20.1148 15.4284C20.3758 15.181 20.6225 14.9315 20.8545 14.6839C21.8432 13.6294 22.5979 12.5787 23.1057 11.7925C23.3601 11.3985 23.5542 11.0683 23.686 10.834C23.752 10.7168 23.8025 10.6233 23.8372 10.5575C23.8546 10.5247 23.8681 10.4987 23.8777 10.4802L23.889 10.4579L23.8925 10.4511L23.8936 10.4488C23.8938 10.4484 23.8944 10.4472 23 9.99998L23.8944 10.4472C24.0352 10.1657 24.0348 9.83359 23.8941 9.55207L23.8925 9.54885L23.889 9.54202L23.8777 9.51981C23.8681 9.50126 23.8546 9.4753 23.8372 9.44242C23.8025 9.37668 23.752 9.28321 23.686 9.16597C23.5542 8.93163 23.3601 8.6015 23.1057 8.20746C22.5979 7.4213 21.8432 6.37058 20.8545 5.31604C18.8955 3.22642 15.8995 0.999985 12 0.999985C9.44727 0.999985 7.28172 1.9541 5.54081 3.19936L2.28558 0.467896L1.00001 1.99998L3.96974 4.49188C3.67733 4.7654 3.40247 5.0419 3.14546 5.31604C2.15683 6.37058 1.40207 7.4213 0.894336 8.20746C0.63985 8.6015 0.445792 8.93163 0.313971 9.16597C0.248023 9.28321 0.19754 9.37668 0.162753 9.44242C0.145357 9.4753 0.131875 9.50126 0.122338 9.51981L0.11099 9.54202L0.107539 9.54885L0.10637 9.55118C0.106186 9.55155 0.105573 9.55277 1 9.99998L0.105573 9.55277C-0.0351909 9.8343 -0.0351909 10.1657 0.105573 10.4472L0.107539 10.4511L0.11099 10.4579L0.122338 10.4802C0.131875 10.4987 0.145357 10.5247 0.162753 10.5575C0.19754 10.6233 0.248023 10.7168 0.313971 10.834C0.445792 11.0683 0.63985 11.3985 0.894336 11.7925C1.40207 12.5787 2.15683 13.6294 3.14546 14.6839C5.10448 16.7735 8.10049 19 12 19C14.6001 19 16.7985 18.0101 18.5557 16.731ZM18.5717 14.1335C18.861 13.8672 19.1357 13.5931 19.3955 13.316C20.2818 12.3706 20.9646 11.4213 21.4256 10.7075C21.6051 10.4295 21.75 10.1889 21.8593 9.99998C21.75 9.81112 21.6051 9.57043 21.4256 9.29251C20.9646 8.57867 20.2818 7.62939 19.3955 6.68393C17.6045 4.77354 15.1005 2.99998 12 2.99998C10.1585 2.99998 8.52751 3.6256 7.13129 4.53392L9.72447 6.70987C10.3704 6.26225 11.1546 5.99998 12 5.99998C14.2091 5.99998 16 7.79085 16 9.99998C16 10.5961 15.8696 11.1618 15.6358 11.67L18.5717 14.1335ZM14.3724 13.2208L16.9693 15.3998C15.551 16.3438 13.8859 17 12 17C8.89951 17 6.39552 15.2264 4.60454 13.316C3.71817 12.3706 3.03543 11.4213 2.57441 10.7075C2.39492 10.4295 2.25003 10.1889 2.14074 9.99998C2.25003 9.81112 2.39492 9.57043 2.57441 9.29251C3.03543 8.57867 3.71817 7.62939 4.60454 6.68393C4.88986 6.37958 5.19327 6.07872 5.51431 5.78794L8.41566 8.22246C8.1496 8.75793 8 9.36149 8 9.99998C8 12.2091 9.79086 14 12 14C12.8882 14 13.7087 13.7105 14.3724 13.2208ZM13.9804 10.281C13.9933 10.1892 14 10.0954 14 9.99998C14 8.89542 13.1046 7.99998 12 7.99998C11.7832 7.99998 11.5745 8.03447 11.3791 8.09824L13.9804 10.281ZM10.0426 9.58759L12.7461 11.8562C12.5156 11.9489 12.2638 12 12 12C10.8954 12 10 11.1046 10 9.99998C10 9.85861 10.0147 9.72067 10.0426 9.58759ZM0.105573 10.4472C0.105506 10.447 0.107016 10.4462 0.21695 10.3913C0.328282 10.3357 0.550809 10.2246 0.995499 10.0022L0.105573 10.4472ZM23.8941 9.55207L23 9.99998C23.8944 9.55277 23.8943 9.55243 23.8941 9.55207Z" fill="black"/>
</svg>
