<svg width="168" height="162" viewBox="0 0 168 162" fill="none" xmlns="http://www.w3.org/2000/svg">
<path d="M2.50004 3.59745L2.50004 2.69995H137.455L165.5 32.1473V114.121H165.499H165.478H165.458H165.437H165.416H165.395H165.374H165.353H165.332H165.311H165.29H165.269H165.248H165.226H165.205H165.183H165.162H165.14H165.119H165.097H165.075H165.054H165.032H165.01H164.988H164.966H164.944H164.922H164.9H164.877H164.855H164.833H164.81H164.788H164.766H164.743H164.721H164.698H164.675H164.652H164.63H164.607H164.584H164.561H164.538H164.515H164.492H164.469H164.446H164.423H164.399H164.376H164.353H164.329H164.306H164.282H164.259H164.235H164.212H164.188H164.164H164.14H164.117H164.093H164.069H164.045H164.021H163.997H163.973H163.949H163.925H163.9H163.876H163.852H163.828H163.803H163.779H163.755H163.73H163.706H163.681H163.656H163.632H163.607H163.583H163.558H163.533H163.508H163.483H163.459H163.434H163.409H163.384H163.359H163.334H163.309H163.284H163.258H163.233H163.208H163.183H163.158H163.132H163.107H163.082H163.056H163.031H163.005H162.98H162.954H162.929H162.903H162.878H162.852H162.826H162.801H162.775H162.749H162.724H162.698H162.672H162.646H162.62H162.594H162.569H162.543H162.517H162.491H162.465H162.439H162.413H162.387H162.36H162.334H162.308H162.282H162.256H162.23H162.203H162.177H162.151H162.125H162.098H162.072H162.046H162.019H161.993H161.966H161.94H161.914H161.887H161.861H161.834H161.808H161.781H161.755H161.728H161.702H161.675H161.648H161.622H161.595H161.569H161.542H161.515H161.489H161.462H161.435H161.408H161.382H161.355H161.328H161.302H161.275H161.248H161.221H161.194H161.168H161.141H161.114H161.087H161.06H161.034H161.007H160.98H160.953H160.926H160.899H160.872H160.846H160.819H160.792H160.765H160.738H160.711H160.684H160.657H160.63H160.603H160.576H160.55H160.523H160.496H160.469H160.442H160.415H160.388H160.361H160.334H160.307H160.28H160.253H160.226H160.2H160.173H160.146H160.119H160.092H160.065H160.038H160.011H159.984H159.957H159.931H159.904H159.877H159.85H159.823H159.796H159.769H159.742H159.716H159.689H159.662H159.635H159.608H159.582H159.555H159.528H159.501H159.474H159.448H159.421H159.394H159.368H159.341H159.314H159.287H159.261H159.234H159.208H159.181H159.154H159.128H159.101H159.075H159.048H159.021H158.995H158.968H158.942H158.915H158.889H158.863H158.836H158.81H158.783H158.757H158.731H158.704H158.678H158.652H158.625H158.599H158.573H158.547H158.52H158.494H158.468H158.442H158.416H158.39H158.364H158.338H158.312H158.286H158.26H158.234H158.208H158.182H158.156H158.13H158.104H158.078H158.053H2.50001L2.50001 113.078L2.50002 106.6L2.50004 46.6701L2.50003 20.8776L2.50002 13.0782L2.50002 10.9594L2.50002 10.4086V10.2683V10.2329V10.224V10.2217C2.50002 10.2213 2.50002 10.221 0.0568368 10.221H2.50002L2.50004 3.59745Z" fill="black" stroke="black" stroke-width="5" stroke-linecap="round" stroke-linejoin="round"/>
<path d="M138.526 0.199951V31.1473H168" fill="#EA3410"/>
<path fill-rule="evenodd" clip-rule="evenodd" d="M27.9999 31.1474L81.0525 31.1474L81.0525 37.8674L27.9999 37.8674L27.9999 31.1474Z" fill="white"/>
<path fill-rule="evenodd" clip-rule="evenodd" d="M54.5265 52.5454L107.579 52.5454L107.579 59.2654L54.5265 59.2654L54.5265 52.5454Z" fill="white"/>
<ellipse cx="82.8799" cy="114.41" rx="34.72" ry="34.72" fill="white"/>
<path fill-rule="evenodd" clip-rule="evenodd" d="M82.5264 88.3853C68.8817 88.3853 57.8205 99.4968 57.8205 113.203C57.8205 120.719 61.163 127.421 66.4161 131.972L54.5264 152.913L66.0558 149.603L69.3499 161.185L81.6514 137.97C81.7771 137.974 81.9013 137.984 82.0256 137.995C82.1913 138.008 82.3571 138.022 82.5264 138.022C82.6956 138.022 82.8614 138.008 83.0272 137.995C83.1514 137.984 83.2756 137.974 83.4014 137.97L95.7028 161.185L98.9969 149.603L110.526 152.913L98.6367 131.972C103.886 127.421 107.232 120.716 107.232 113.203C107.232 99.4968 96.171 88.3853 82.5264 88.3853ZM82.5264 126.44C89.8035 126.44 95.7028 120.514 95.7028 113.203C95.7028 105.893 89.8035 99.9671 82.5264 99.9671C75.2492 99.9671 69.3499 105.893 69.3499 113.203C69.3499 120.514 75.2492 126.44 82.5264 126.44Z" fill="#EA3410"/>
</svg>
