<svg width="70" height="70" viewBox="0 0 70 70" fill="none" xmlns="http://www.w3.org/2000/svg">
<path fill-rule="evenodd" clip-rule="evenodd" d="M8.66116 43.6612C11.0054 41.317 14.1848 40 17.5 40H37.5C40.8152 40 43.9946 41.317 46.3388 43.6612C48.683 46.0054 50 49.1848 50 52.5V57.5H45V52.5C45 50.5109 44.2098 48.6033 42.8033 47.1967C41.3968 45.7902 39.4891 45 37.5 45H17.5C15.5109 45 13.6032 45.7902 12.1967 47.1967C10.7902 48.6033 10 50.5109 10 52.5V57.5H5V52.5C5 49.1848 6.31696 46.0054 8.66116 43.6612Z" fill="#EA3410"/>
<path fill-rule="evenodd" clip-rule="evenodd" d="M27.5 15C23.3579 15 20 18.3578 20 22.5C20 26.6421 23.3579 30 27.5 30C31.6422 30 35 26.6421 35 22.5C35 18.3578 31.6422 15 27.5 15ZM15 22.5C15 15.5964 20.5965 9.99997 27.5 9.99997C34.4036 9.99997 40 15.5964 40 22.5C40 29.4035 34.4036 35 27.5 35C20.5965 35 15 29.4035 15 22.5Z" fill="#EA3410"/>
<path fill-rule="evenodd" clip-rule="evenodd" d="M55.6252 40.4044C58.3068 41.0968 60.6826 42.6602 62.3794 44.8491C64.0763 47.0381 64.9981 49.7285 65.0002 52.4981L65.0002 52.5L65.0002 57.5H60.0002L60.0002 52.5019C60.0002 52.5017 60.0002 52.5021 60.0002 52.5019C59.9988 50.8403 59.4457 49.2257 58.4277 47.9125C57.4096 46.5991 55.9842 45.6611 54.3752 45.2456L55.6252 40.4044Z" fill="#EA3410"/>
<path fill-rule="evenodd" clip-rule="evenodd" d="M48.4443 17.9137C47.4231 16.5982 45.9932 15.66 44.38 15.2469L45.6202 10.4032C48.309 11.0916 50.6921 12.6553 52.394 14.8479C54.0959 17.0404 55.0197 19.737 55.0197 22.5125C55.0197 25.2881 54.0959 27.9847 52.394 30.1772C50.6921 32.3697 48.309 33.9335 45.6202 34.6219L44.38 29.7782C45.9932 29.3651 47.4231 28.4268 48.4443 27.1113C49.4654 25.7958 50.0197 24.1779 50.0197 22.5125C50.0197 20.8472 49.4654 19.2293 48.4443 17.9137Z" fill="#EA3410"/>
</svg>
