<svg width="70" height="70" viewBox="0 0 70 70" fill="none" xmlns="http://www.w3.org/2000/svg">
<path d="M47.5 57.5V52.5C47.5 49.8478 46.4464 47.3043 44.5711 45.4289C42.6957 43.5536 40.1522 42.5 37.5 42.5H17.5C14.8478 42.5 12.3043 43.5536 10.4289 45.4289C8.55357 47.3043 7.5 49.8478 7.5 52.5V57.5" stroke="#EA3410" stroke-width="5" stroke-linejoin="round"/>
<path d="M27.5 32.5C33.0228 32.5 37.5 28.0228 37.5 22.5C37.5 16.9772 33.0228 12.5 27.5 12.5C21.9772 12.5 17.5 16.9772 17.5 22.5C17.5 28.0228 21.9772 32.5 27.5 32.5Z" stroke="#EA3410" stroke-width="5" stroke-linecap="round" stroke-linejoin="round"/>
<path d="M62.5002 57.5001V52.5001C62.4986 50.2844 61.7611 48.132 60.4037 46.3809C59.0462 44.6297 57.1456 43.379 55.0002 42.8251" stroke="#EA3410" stroke-width="5" stroke-linejoin="round"/>
<path d="M45 12.8251C47.151 13.3758 49.0576 14.6268 50.4191 16.3808C51.7806 18.1349 52.5196 20.2921 52.5196 22.5126C52.5196 24.733 51.7806 26.8903 50.4191 28.6443C49.0576 30.3983 47.151 31.6493 45 32.2001" stroke="#EA3410" stroke-width="5" stroke-linejoin="round"/>
</svg>
