<svg width="10" height="15" viewBox="0 0 10 15" fill="none" xmlns="http://www.w3.org/2000/svg">
<mask id="path-1-inside-1" fill="white">
<path d="M0.862793 0.941162L9.96931 7.96077L0.862793 14.9804V0.941162Z"/>
</mask>
<path d="M0.862793 0.941162L8.79939 -9.35497C4.87501 -12.38 -0.427733 -12.9111 -4.87411 -10.7245C-9.32049 -8.53788 -12.1372 -4.0138 -12.1372 0.941162H0.862793ZM9.96931 7.96077L17.9059 18.2569C21.0989 15.7956 22.9693 11.9923 22.9693 7.96077C22.9693 3.92927 21.0989 0.125899 17.9059 -2.33536L9.96931 7.96077ZM0.862793 14.9804H-12.1372C-12.1372 19.9353 -9.32049 24.4594 -4.87411 26.646C-0.427733 28.8327 4.87501 28.3016 8.79939 25.2765L0.862793 14.9804ZM-7.07381 11.2373L2.03271 18.2569L17.9059 -2.33536L8.79939 -9.35497L-7.07381 11.2373ZM2.03271 -2.33536L-7.07381 4.68424L8.79939 25.2765L17.9059 18.2569L2.03271 -2.33536ZM13.8628 14.9804V0.941162H-12.1372V14.9804H13.8628Z" fill="white" mask="url(#path-1-inside-1)"/>
</svg>
